PathFileType	4	(X/Y/Z)	/Users/itak/Documents/Research/Walk-IL/dataset/trc/00413_00012.trc
DataRate	CameraRate	NumFrames	NumMarkers	Units	OrigDataRate	OrigDataStartFrame	OrigNumFrames
100.000000	100.000000	4	53	mm	100.000000	432	576
Frame#	Time	RPSI			LPSI			L3			STRN			T10			C7			CLAV			RBAK			LBAK			LSHO			LUPA			LAEL			LAOL			LWTS			LWPS			LFRA			LIFD			LHPS			LHTS			RSHO			RUPA			RAEL			RAOL			RWTS			RWPS			RFRA			RIFD			RHTS			RHPS			RBHD			LFHD			RFHD			LBHD			LHIP			RHIP			RASI			LASI			LKNE			LTHI			LANK			LTIP			LTOE			LMT1			LMT5			LHEE			RKNE			RTHI			RANK			RTIP			RTOE			RMT1			RMT5			RHEE			
		X1	Y1	Z1	X2	Y2	Z2	X3	Y3	Z3	X4	Y4	Z4	X5	Y5	Z5	X6	Y6	Z6	X7	Y7	Z7	X8	Y8	Z8	X9	Y9	Z9	X10	Y10	Z10	X11	Y11	Z11	X12	Y12	Z12	X13	Y13	Z13	X14	Y14	Z14	X15	Y15	Z15	X16	Y16	Z16	X17	Y17	Z17	X18	Y18	Z18	X19	Y19	Z19	X20	Y20	Z20	X21	Y21	Z21	X22	Y22	Z22	X23	Y23	Z23	X24	Y24	Z24	X25	Y25	Z25	X26	Y26	Z26	X27	Y27	Z27	X28	Y28	Z28	X29	Y29	Z29	X30	Y30	Z30	X31	Y31	Z31	X32	Y32	Z32	X33	Y33	Z33	X34	Y34	Z34	X35	Y35	Z35	X36	Y36	Z36	X37	Y37	Z37	X38	Y38	Z38	X39	Y39	Z39	X40	Y40	Z40	X41	Y41	Z41	X42	Y42	Z42	X43	Y43	Z43	X44	Y44	Z44	X45	Y45	Z45	X46	Y46	Z46	X47	Y47	Z47	X48	Y48	Z48	X49	Y49	Z49	X50	Y50	Z50	X51	Y51	Z51	X52	Y52	Z52	X53	Y53	Z53	

433	4.32	1094.621459960938	964.234375	-327.792724609375	960.9933471679688	953.77783203125	-331.0146789550781	1030.195068359375	1043.889526367188	-333.218505859375	1026.201416015625	1201.123291015625	-568.6495971679688	1021.477416992188	1145.580200195312	-323.8625793457031	1004.871704101562	1393.187377929688	-354.7412414550781	1019.687194824219	1318.796752929688	-512.3370971679688	1077.21533203125	1249.2119140625	-313.8890380859375	905.0502319335938	1353.827514648438	-344.7874145507812	855.7276000976562	1369.058837890625	-433.4608764648438	787.2781982421875	1254.32373046875	-401.561279296875	761.4221801757812	1058.532958984375	-395.839111328125	827.6397705078125	1041.494995117188	-339.8016967773438	800.3348388671875	837.1188354492188	-467.6269836425781	735.7890014648438	831.5657348632812	-414.6322326660156	748.3030395507812	954.1777954101562	-401.4460144042969	795.484619140625	657.9083251953125	-443.5275268554688	737.4859619140625	742.050537109375	-422.0641784667969	779.0411376953125	738.126220703125	-472.4809265136719	1164.175415039062	1382.686279296875	-406.2507019042969	1226.9970703125	1323.471069335938	-390.2748413085938	1299.631591796875	1069.911499023438	-400.4010314941406	1207.076171875	1045.095947265625	-398.1351623535156	1328.20361328125	916.54296875	-592.8307495117188	1382.059936523438	897.0106811523438	-546.1445922851562	1328.998779296875	1017.90478515625	-437.9264526367188	1365.79296875	764.8057861328125	-659.519775390625	1373.151489257812	834.001953125	-646.8078002929688	1402.147705078125	820.5527954101562	-586.0155639648438	1085.630859375	1590.159301757812	-395.5589904785156	939.1299438476562	1581.743896484375	-531.9725341796875	1061.647338867188	1598.418823242188	-527.8892211914062	927.4602661132812	1567.04248046875	-383.8372192382812	846.87890625	947.63623046875	-421.9143981933594	1206.901245117188	947.51220703125	-421.7616882324219	1151.809936523438	961.1762084960938	-552.8070678710938	888.1453247070312	949.5895385742188	-535.2286987304688	879.1482543945312	469.8717956542969	-559.5718994140625	867.3927001953125	599.5068359375	-532.1814575195312	868.9557495117188	149.616455078125	-228.5299072265625	859.3115234375	306.9134826660156	-389.1662292480469	927.55859375	41.07052230834961	-406.4286499023438	959.0523681640625	82.6661376953125	-342.5558166503906	855.5396118164062	70.99740600585938	-327.8937377929688	925.4693603515625	172.8711395263672	-198.5069274902344	1169.241455078125	465.9600219726562	-549.8421630859375	1197.807739257812	726.59228515625	-531.7246704101562	1133.709228515625	47.91461944580078	-484.4779968261719	1139.712768554688	336.6227111816406	-560.1359252929688	1063.3544921875	25.03751373291016	-663.9921875	1034.223754882812	30.01533699035645	-584.4891357421875	1135.66259765625	37.03395843505859	-568.4586791992188	1083.036010742188	33.67272186279297	-409.4176330566406	
434	4.33	1096.036010742188	964.4296264648438	-330.2219543457031	962.42578125	954.0113525390625	-333.3853454589844	1031.921264648438	1044.44970703125	-335.8759460449219	1027.22412109375	1201.331420898438	-571.7308959960938	1023.572326660156	1146.289428710938	-326.6452331542969	1007.0458984375	1393.757446289062	-358.0994262695312	1020.990112304688	1319.08349609375	-515.5852661132812	1079.576904296875	1249.852661132812	-317.3684997558594	907.283203125	1354.452514648438	-347.4986267089844	857.4374389648438	1369.486206054688	-435.929931640625	789.125	1254.994018554688	-403.15234375	763.3953857421875	1059.294555664062	-396.1285400390625	829.7727661132812	1042.406860351562	-340.6532897949219	800.9165649414062	837.9464111328125	-468.3672485351562	737.0599975585938	832.322021484375	-414.6528930664062	749.7656860351562	954.9830932617188	-401.6146545410156	796.394287109375	658.7493896484375	-444.9007873535156	738.1146850585938	742.7278442382812	-422.8138122558594	779.5874633789062	739.0394287109375	-473.2911071777344	1166.015380859375	1383.255249023438	-410.4290161132812	1228.988525390625	1324.101684570312	-394.7312622070312	1302.532348632812	1070.820434570312	-405.9650573730469	1210.09619140625	1045.555419921875	-403.4708251953125	1331.36962890625	921.0557861328125	-600.8952026367188	1385.438598632812	900.9637451171875	-554.7296142578125	1331.968017578125	1019.576293945312	-444.1182250976562	1369.679077148438	770.875732421875	-670.332275390625	1376.700805664062	839.9026489257812	-656.5382080078125	1405.948852539062	825.4139404296875	-596.0771484375	1087.454345703125	1590.719970703125	-399.981689453125	940.2881469726562	1581.786376953125	-535.6702880859375	1062.86962890625	1598.648315429688	-532.324951171875	929.325927734375	1567.53955078125	-387.4072265625	848.9507446289062	949.1376342773438	-422.4175415039062	1208.11083984375	947.5674438476562	-424.7322692871094	1152.93212890625	961.4526977539062	-555.8284301757812	889.2062377929688	950.3377685546875	-537.4610595703125	880.5444946289062	471.6311950683594	-566.5808715820312	869.2176513671875	600.619384765625	-537.4046020507812	871.3545532226562	145.5196380615234	-241.2076263427734	861.4369506835938	305.8715515136719	-398.7608947753906	928.96484375	41.97834777832031	-422.321533203125	960.9425659179688	81.3729248046875	-357.2452392578125	857.4226684570312	69.91085815429688	-342.7154235839844	927.9923706054688	167.8474731445312	-210.6469268798828	1170.01416015625	465.7964172363281	-551.2186889648438	1198.613403320312	726.4619140625	-533.935302734375	1133.678833007812	47.92915344238281	-484.491455078125	1140.2421875	336.405029296875	-560.673583984375	1063.367919921875	25.04380226135254	-663.9976196289062	1034.182006835938	29.95994758605957	-584.4951782226562	1135.5263671875	37.06057357788086	-568.460693359375	1083.091918945312	33.93728256225586	-409.4153442382812	
435	4.34	1097.370239257812	964.6071166992188	-332.5778503417969	963.7779541015625	954.2273559570312	-335.6826477050781	1033.544677734375	1044.987182617188	-338.3873596191406	1028.186767578125	1201.542114257812	-574.6925048828125	1025.565307617188	1146.959594726562	-329.3110656738281	1009.147033691406	1394.314331054688	-361.3277893066406	1022.234680175781	1319.361572265625	-518.6987915039062	1081.831176757812	1250.464111328125	-320.7147216796875	909.4251098632812	1355.060668945312	-350.1054992675781	859.0935668945312	1369.919311523438	-438.3000183105469	790.9125366210938	1255.633666992188	-404.7280883789062	765.372802734375	1060.034301757812	-396.514892578125	831.8501586914062	1043.2744140625	-341.6172790527344	801.4734497070312	838.7919921875	-469.3208312988281	738.3040161132812	833.0772705078125	-414.913818359375	751.1951904296875	955.7730102539062	-401.9474792480469	797.1912231445312	659.6111450195312	-446.6084289550781	738.6876220703125	743.4407958984375	-423.8388061523438	780.0797119140625	739.982177734375	-474.3793029785156	1167.790283203125	1383.785278320312	-414.4385070800781	1230.891845703125	1324.681884765625	-399.001953125	1305.275146484375	1071.669677734375	-411.2399597167969	1212.969482421875	1045.996948242188	-408.496337890625	1334.281127929688	925.4406127929688	-608.5319213867188	1388.57177734375	904.80859375	-562.90771484375	1334.747802734375	1021.166137695312	-449.986083984375	1373.130004882812	776.756103515625	-680.5017700195312	1379.89453125	845.6080932617188	-665.765380859375	1409.420166015625	830.113525390625	-605.6450805664062	1089.224731445312	1591.273559570312	-404.2708740234375	941.4256591796875	1581.812255859375	-539.2730102539062	1064.055419921875	1598.813598632812	-536.58349609375	931.1353149414062	1568.054321289062	-390.8784484863281	850.8973999023438	950.5252685546875	-423.0098266601562	1209.271118164062	947.668212890625	-427.5748291015625	1154.08984375	961.8925170898438	-558.8344116210938	890.22607421875	951.0392456054688	-539.6273193359375	881.8069458007812	473.2943115234375	-573.1618041992188	870.9609375	601.6625366210938	-542.2254028320312	873.5673217773438	140.8428497314453	-254.1259918212891	863.416748046875	304.4143371582031	-408.2781982421875	930.715087890625	42.926025390625	-438.3264465332031	963.042724609375	79.95174407958984	-371.9705810546875	859.5200805664062	68.42633819580078	-357.7999267578125	930.2390747070312	162.2900695800781	-222.9278717041016	1170.794189453125	465.6662902832031	-552.4921264648438	1199.4267578125	726.3648071289062	-536.0423583984375	1133.654541015625	47.91729354858398	-484.5081787109375	1140.853637695312	336.2285461425781	-561.0718383789062	1063.380981445312	25.04794883728027	-664.0005493164062	1034.16015625	29.92297744750977	-584.4962158203125	1135.436401367188	37.07926559448242	-568.4551391601562	1083.198364257812	34.23991012573242	-409.4104614257812	
436	4.350000000000001	1098.624389648438	964.7573852539062	-334.8755798339844	965.05029296875	954.4166259765625	-337.92236328125	1035.067138671875	1045.49462890625	-340.7559204101562	1029.093139648438	1201.756469726562	-577.5391845703125	1027.44580078125	1147.584228515625	-331.8761596679688	1011.171630859375	1394.85107421875	-364.4273071289062	1023.422668457031	1319.632568359375	-521.6798706054688	1083.976196289062	1251.040405273438	-323.9223022460938	911.4722290039062	1355.646728515625	-352.6103210449219	860.6962280273438	1370.355102539062	-440.572021484375	792.6336669921875	1256.238647460938	-406.2919311523438	767.3233642578125	1060.745727539062	-397.0179443359375	833.8594970703125	1044.083618164062	-342.7040100097656	802.0100708007812	839.64208984375	-470.4832458496094	739.5152587890625	833.8230590820312	-415.4192199707031	752.5845947265625	956.537841796875	-402.4560546875	797.875732421875	660.4773559570312	-448.6118469238281	739.2125854492188	744.1771850585938	-425.1220703125	780.5227661132812	740.9386596679688	-475.729736328125	1169.501953125	1384.269287109375	-418.2761840820312	1232.709228515625	1325.203247070312	-403.0860290527344	1307.86376953125	1072.451171875	-416.2311096191406	1215.694702148438	1046.408569335938	-413.2311706542969	1336.935424804688	929.6657104492188	-615.7382202148438	1391.462036132812	908.5203247070312	-570.679443359375	1337.345336914062	1022.663146972656	-455.54296875	1376.162231445312	782.4119873046875	-690.0411987304688	1382.740844726562	851.0831909179688	-674.4942626953125	1412.5703125	834.6294555664062	-614.7266845703125	1090.943237304688	1591.8134765625	-408.4236145019531	942.542236328125	1581.821044921875	-542.7770385742188	1065.210815429688	1598.91552734375	-540.6693115234375	932.8889770507812	1568.583740234375	-394.2490844726562	852.6450805664062	951.720458984375	-423.8521423339844	1210.389404296875	947.80224609375	-430.2900390625	1155.298828125	962.5022583007812	-561.8330688476562	891.209716796875	951.6998291015625	-541.7432250976562	882.9443969726562	474.838623046875	-579.292236328125	872.5745239257812	602.633056640625	-546.6541137695312	875.6002197265625	135.6702880859375	-267.2232971191406	865.2355346679688	302.5795593261719	-417.6738891601562	932.6856079101562	43.89823532104492	-454.3674621582031	965.263671875	78.41133880615234	-386.7051086425781	861.6893920898438	66.64639282226562	-373.0690307617188	932.24609375	156.2431182861328	-235.3146514892578	1171.561645507812	465.5666198730469	-553.6927490234375	1200.227294921875	726.2979736328125	-538.0760498046875	1133.634399414062	47.88601684570312	-484.5313720703125	1141.531616210938	336.1004943847656	-561.3538208007812	1063.39111328125	25.04884338378906	-664.001708984375	1034.157348632812	29.90401649475098	-584.4932250976562	1135.392211914062	37.0890007019043	-568.4428100585938	1083.343505859375	34.56991958618164	-409.4046325683594	
